<svg id="visual" viewBox="0 0 960 540" width="960" height="540" xmlns="http://www.w3.org/2000/svg" xmlns:xlink="http://www.w3.org/1999/xlink" version="1.1"><rect x="0" y="0" width="960" height="540" fill="#1e293b"></rect><defs><linearGradient id="grad1_0" x1="43.8%" y1="0%" x2="100%" y2="100%"><stop offset="14.444444444444446%" stop-color="#1e293b" stop-opacity="1"></stop><stop offset="85.55555555555554%" stop-color="#1e293b" stop-opacity="1"></stop></linearGradient></defs><defs><linearGradient id="grad2_0" x1="0%" y1="0%" x2="56.3%" y2="100%"><stop offset="14.444444444444446%" stop-color="#1e293b" stop-opacity="1"></stop><stop offset="85.55555555555554%" stop-color="#1e293b" stop-opacity="1"></stop></linearGradient></defs><g transform="translate(960, 0)"><path d="M0 486C-70.2 484.7 -140.5 483.3 -185.2 447.2C-229.9 411 -249.2 339.9 -294.9 294.9C-340.6 249.8 -412.7 230.8 -449 186C-485.3 141.2 -485.6 70.6 -486 0L0 0Z" fill="#fca5a5"></path></g><g transform="translate(0, 540)"><path d="M0 -486C63 -464.1 126.1 -442.3 167.6 -404.7C209.2 -367.1 229.2 -313.7 279.3 -279.3C329.4 -244.9 409.5 -229.4 449 -186C488.5 -142.6 487.2 -71.3 486 0L0 0Z" fill="#fca5a5"></path></g></svg>