<svg id="visual" viewBox="0 0 960 540" width="960" height="540" xmlns="http://www.w3.org/2000/svg" xmlns:xlink="http://www.w3.org/1999/xlink" version="1.1"><rect x="0" y="0" width="960" height="540" fill="#fca5a5"></rect><defs><linearGradient id="grad1_0" x1="43.8%" y1="0%" x2="100%" y2="100%"><stop offset="14.444444444444446%" stop-color="#fca5a5" stop-opacity="1"></stop><stop offset="85.55555555555554%" stop-color="#fca5a5" stop-opacity="1"></stop></linearGradient></defs><defs><linearGradient id="grad2_0" x1="0%" y1="0%" x2="56.3%" y2="100%"><stop offset="14.444444444444446%" stop-color="#fca5a5" stop-opacity="1"></stop><stop offset="85.55555555555554%" stop-color="#fca5a5" stop-opacity="1"></stop></linearGradient></defs><g transform="translate(960, 0)"><path d="M0 486C-44.2 433.3 -88.4 380.6 -151.2 364.9C-213.9 349.2 -295.2 370.5 -343.7 343.7C-392.1 316.8 -407.7 241.7 -425.9 176.4C-444.2 111.1 -465.1 55.6 -486 0L0 0Z" fill="#0f172a"></path></g><g transform="translate(0, 540)"><path d="M0 -486C45.8 -442.6 91.7 -399.2 159.2 -384.3C226.7 -369.5 315.9 -383.1 343.7 -343.7C371.4 -304.2 337.6 -211.6 351.1 -145.4C364.5 -79.3 425.3 -39.6 486 0L0 0Z" fill="#0f172a"></path></g></svg>